<svg width="40" height="40" viewBox="0 0 40 40" fill="none" xmlns="http://www.w3.org/2000/svg">
<path d="M25.9315 14.1667H7.36111C4.6764 14.1667 2.5 11.9903 2.5 9.30556C2.5 6.62084 4.6764 4.44444 7.36111 4.44444H25.9315M14.0685 35.5556H32.6389C35.3236 35.5556 37.5 33.3791 37.5 30.6944C37.5 28.0097 35.3236 25.8333 32.6389 25.8333H14.0685M2.5 30.6944C2.5 34.4531 5.54694 37.5 9.30556 37.5C13.0642 37.5 16.1111 34.4531 16.1111 30.6944C16.1111 26.9358 13.0642 23.8889 9.30556 23.8889C5.54694 23.8889 2.5 26.9358 2.5 30.6944ZM37.5 9.30556C37.5 13.0642 34.4531 16.1111 30.6944 16.1111C26.9358 16.1111 23.8889 13.0642 23.8889 9.30556C23.8889 5.54694 26.9358 2.5 30.6944 2.5C34.4531 2.5 37.5 5.54694 37.5 9.30556Z" stroke="#31303A" stroke-width="5" stroke-linecap="round" stroke-linejoin="round"/>
</svg>
