<svg width="25" height="30" viewBox="0 0 25 30" fill="none" xmlns="http://www.w3.org/2000/svg">
<path d="M1.91201 24.5946C1.91201 25.1926 2.38649 25.6757 2.97379 25.6757H22.0195C22.6068 25.6757 23.0813 25.1926 23.0813 24.5946V16.723C23.0813 10.7703 18.3431 5.94595 12.4967 5.94595C6.65022 5.94595 1.91201 10.7703 1.91201 16.723V24.5946ZM4.30102 16.723C4.30102 12.1149 7.97081 8.37838 12.4967 8.37838C17.0225 8.37838 20.6923 12.1149 20.6923 16.723V23.2432H8.91315V17.4662C8.91315 17.2804 8.76383 17.1284 8.58134 17.1284H7.12138C6.93889 17.1284 6.78958 17.2804 6.78958 17.4662V23.2432H4.30102V16.723ZM2.70503 8.19257L4.01898 6.85473C4.12184 6.75 4.12184 6.5777 4.01898 6.47297L1.76601 4.17905C1.71612 4.12876 1.64875 4.10054 1.57854 4.10054C1.50833 4.10054 1.44096 4.12876 1.39107 4.17905L0.0771122 5.51689C0.027712 5.56769 0 5.63628 0 5.70777C0 5.77926 0.027712 5.84785 0.0771122 5.89865L2.33009 8.19257C2.43295 8.2973 2.59885 8.2973 2.70503 8.19257ZM24.9229 5.51689L23.6089 4.17905C23.559 4.12876 23.4916 4.10054 23.4214 4.10054C23.3512 4.10054 23.2838 4.12876 23.234 4.17905L20.981 6.47297C20.9316 6.52377 20.9039 6.59237 20.9039 6.66385C20.9039 6.73534 20.9316 6.80393 20.981 6.85473L22.2949 8.19257C22.3978 8.2973 22.567 8.2973 22.6699 8.19257L24.9229 5.89865C25.0257 5.79054 25.0257 5.62162 24.9229 5.51689ZM23.1145 27.8378H1.87883C1.29153 27.8378 0.817043 28.3209 0.817043 28.9189V29.7297C0.817043 29.8784 0.936494 30 1.08249 30H23.9108C24.0568 30 24.1763 29.8784 24.1763 29.7297V28.9189C24.1763 28.3209 23.7018 27.8378 23.1145 27.8378ZM11.5676 3.78378H13.4257C13.5717 3.78378 13.6912 3.66216 13.6912 3.51351V0.27027C13.6912 0.121622 13.5717 0 13.4257 0H11.5676C11.4216 0 11.3022 0.121622 11.3022 0.27027V3.51351C11.3022 3.66216 11.4216 3.78378 11.5676 3.78378Z" fill="#31303A"/>
</svg>
