<svg width="29" height="29" viewBox="0 0 29 29" fill="none" xmlns="http://www.w3.org/2000/svg">
<path d="M5.83333 27.4996H23.1667C21.7222 27.4996 18.8333 26.6329 18.8333 23.1662V20.2773H1.5V23.1662C1.5 26.6329 4.38889 27.4996 5.83333 27.4996Z" fill="#31303A"/>
<path d="M4.38889 15.9444V4.38889C4.38889 3.62271 4.69325 2.88791 5.23502 2.34614C5.7768 1.80436 6.5116 1.5 7.27778 1.5H24.6111C25.3773 1.5 26.1121 1.80436 26.6539 2.34614C27.1956 2.88791 27.5 3.62271 27.5 4.38889V23.1667C27.5 24.6111 26.6333 27.5 23.1667 27.5M23.1667 27.5H5.83333C4.38889 27.5 1.5 26.6333 1.5 23.1667V20.2778H18.8333V23.1667C18.8333 26.6333 21.7222 27.5 23.1667 27.5ZM10.1667 7.27778H21.7222M10.1667 13.0556H15.9444" stroke="#31303A" stroke-width="3" stroke-linecap="round" stroke-linejoin="round"/>
</svg>
