<svg width="33" height="32" viewBox="0 0 33 32" fill="none" xmlns="http://www.w3.org/2000/svg">
<path d="M29.8504 18.6434C30.398 18.0961 31.3206 18.1276 31.6196 18.8418C31.8503 19.393 31.9779 19.9982 31.9779 20.6333V25.1065C31.9779 26.0505 31.9779 26.8648 31.917 27.5328C31.8526 28.2394 31.7098 28.9387 31.3267 29.5968C30.9089 30.3144 30.312 30.9114 29.5943 31.3292C28.9362 31.7123 28.2368 31.8551 27.5303 31.9195C26.8622 31.9805 26.0481 31.9805 25.1041 31.9803H18.0518C17.5261 31.9803 17.2335 31.2603 17.6053 30.8886L29.8504 18.6434Z" fill="#31303A"/>
<path d="M17.5185 4.80033C17.4603 4.03581 17.691 3.25065 18.2789 2.75835C18.407 2.65107 18.533 2.54987 18.6569 2.45531C19.4976 1.81384 20.4328 1.32812 21.5851 1.32812C22.7376 1.32812 23.6728 1.81384 24.5135 2.45531C25.2981 3.05386 26.1615 3.91747 27.1637 4.91977L28.6607 6.41674C29.6631 7.41894 30.5266 8.28246 31.1251 9.06697C31.7666 9.90773 32.2523 10.8428 32.2523 11.9953C32.2523 13.1477 31.7666 14.0829 31.1251 14.9236C30.5266 15.7082 29.6631 16.5716 28.6607 17.5738L18.5351 27.6994C18.1764 28.058 17.48 27.6906 17.5185 27.1849C17.5884 26.2657 17.5884 25.2329 17.5882 24.1769V18.7152C17.588 15.1076 17.588 11.5003 17.5882 7.89285V7.80814C17.5884 6.75215 17.5884 5.71954 17.5185 4.80033Z" fill="#31303A"/>
<path fill-rule="evenodd" clip-rule="evenodd" d="M15.989 7.89197C15.9886 13.2918 15.989 18.6916 15.989 24.0914C15.9891 25.5088 15.9891 26.73 15.8577 27.7081C15.7167 28.7562 15.399 29.7609 14.584 30.5757C13.7692 31.3906 12.7645 31.7084 11.7164 31.8494C10.4869 32.0147 9.23198 31.9806 7.99448 31.9806C6.757 31.9806 5.50211 32.0147 4.27259 31.8494C3.2245 31.7084 2.21983 31.3906 1.40492 30.5757C0.590028 29.7609 0.272264 28.7562 0.131337 27.7081C-0.000140046 26.73 -7.60318e-05 25.5088 3.91303e-06 24.0914V7.89197C-7.60318e-05 6.47456 -0.000140022 5.25331 0.131353 4.27533C0.272264 3.22722 0.590028 2.22256 1.40492 1.40766C2.21983 0.592771 3.2245 0.27499 4.27259 0.13408C5.2747 -0.000643357 6.53221 0.00274635 7.99448 0.00274635C9.22769 0.00274635 10.4925 -0.0304628 11.7164 0.13408C12.7645 0.27499 13.7692 0.592771 14.584 1.40766C15.399 2.22256 15.7167 3.22722 15.8577 4.27533C15.9891 5.25331 15.9891 6.47456 15.989 7.89197ZM7.9945 25.601C7.11144 25.601 6.3956 24.8852 6.3956 24.0022V23.9862C6.3956 23.1031 7.11144 22.3873 7.9945 22.3873C8.87754 22.3873 9.59339 23.1031 9.59339 23.9862V24.0022C9.59339 24.8852 8.87754 25.601 7.9945 25.601Z" fill="#31303A"/>
</svg>
