<svg width="28" height="31" viewBox="0 0 28 31" fill="none" xmlns="http://www.w3.org/2000/svg">
<path fill-rule="evenodd" clip-rule="evenodd" d="M20.4284 7.04545C20.4018 6.93174 20.3743 6.81777 20.3455 6.70369C19.9707 5.21558 19.3806 3.59858 18.4183 2.325C17.426 1.01176 15.9773 0 14 0C12.0227 0 10.5739 1.01176 9.58167 2.325C8.61941 3.59858 8.02924 5.21558 7.65445 6.70371C7.62572 6.81777 7.59811 6.93174 7.57155 7.04545H5.2998C3.05779 7.04545 1.19976 8.77096 1.05063 10.9915L0.00962326 26.4915C-0.154234 28.9315 1.79536 31 4.25881 31H23.7411C26.2046 31 28.1542 28.9315 27.9904 26.4915L26.9493 10.9915C26.8002 8.77096 24.9422 7.04545 22.7002 7.04545H20.4284ZM8.32185 14.0909C9.13521 14.0909 9.73863 13.4827 9.7414 12.6792C9.74161 12.6457 9.74201 12.6122 9.74258 12.5787C9.74383 12.5045 9.74637 12.3923 9.75158 12.2477C9.76198 11.9583 9.78298 11.5404 9.82521 11.0375C9.85516 10.6806 9.89552 10.2844 9.94969 9.86364H18.0504C18.1044 10.2844 18.1448 10.6806 18.1749 11.0375C18.217 11.5404 18.238 11.9583 18.2484 12.2477C18.2536 12.3923 18.2562 12.5045 18.2575 12.5787C18.258 12.6133 18.2585 12.6478 18.2586 12.6824C18.2586 12.6824 18.2586 14.0909 19.6781 14.0909C21.0977 14.0909 21.0977 12.6799 21.0977 12.6799C21.0975 12.6305 21.097 12.5811 21.0961 12.5317C21.0946 12.4409 21.0916 12.3108 21.0856 12.1472C21.074 11.8201 21.0506 11.3573 21.004 10.8034C20.9799 10.5147 20.9491 10.1992 20.9102 9.86364H22.7002C23.4476 9.86364 24.0669 10.4388 24.1166 11.179L25.1576 26.679C25.2122 27.4923 24.5623 28.1818 23.7411 28.1818H4.25881C3.43766 28.1818 2.7878 27.4923 2.84241 26.679L3.88341 11.179C3.93312 10.4388 4.55247 9.86364 5.2998 9.86364H7.0898C7.05087 10.1992 7.02018 10.5147 6.99593 10.8034C6.94944 11.3573 6.92607 11.8201 6.91431 12.1472C6.90842 12.3108 6.90542 12.4409 6.9039 12.5317C6.90308 12.5802 6.90247 12.6286 6.90231 12.677C6.90123 13.4811 7.51034 14.0909 8.32185 14.0909ZM10.4987 7.04545H17.5013C17.1731 5.85226 16.7269 4.78338 16.147 4.01591C15.5423 3.21552 14.8618 2.81818 14 2.81818C13.1382 2.81818 12.4577 3.21552 11.8529 4.01591C11.2731 4.78338 10.8269 5.85226 10.4987 7.04545Z" fill="#31303A"/>
</svg>
