<svg width="51" height="44" viewBox="0 0 51 44" fill="none" xmlns="http://www.w3.org/2000/svg">
<path d="M43.5 42.5C46.2615 42.5 48.5 40.2615 48.5 37.5C48.5 34.7385 46.2615 32.5 43.5 32.5C40.7385 32.5 38.5 34.7385 38.5 37.5C38.5 40.2615 40.7385 42.5 43.5 42.5Z" stroke="#31303A" stroke-width="3" stroke-linecap="round" stroke-linejoin="round"/>
<path d="M14.5 42.5C17.2614 42.5 19.5 40.2615 19.5 37.5C19.5 34.7385 17.2614 32.5 14.5 32.5C11.7386 32.5 9.5 34.7385 9.5 37.5C9.5 40.2615 11.7386 42.5 14.5 42.5Z" stroke="#31303A" stroke-width="3" stroke-linecap="round" stroke-linejoin="round"/>
<path d="M2.5 2.61407C2.5 2.61407 13.1357 2.48467 11.6687 11.2408L10.0873 19.9971C9.85273 21.047 9.87574 22.1333 10.1548 23.1737C10.4339 24.2139 10.9616 25.1805 11.6977 26C12.4338 26.8194 13.3588 27.4698 14.4025 27.9022C15.4461 28.3344 16.5807 28.537 17.7201 28.4945H36.0576C38.5971 28.4235 41.036 27.5447 42.9761 26.0013C44.916 24.458 46.2427 22.3412 46.7392 19.9971L48.321 11.133C48.5713 10.0713 48.5589 8.96968 48.285 7.91313C48.0109 6.85661 47.4823 5.87346 46.7403 5.0397C45.9981 4.20593 45.0622 3.54382 44.0048 3.10455C42.9474 2.66527 41.7967 2.4606 40.6419 2.50626H20.6999" stroke="#31303A" stroke-width="5" stroke-linecap="round" stroke-linejoin="round"/>
</svg>
