<svg width="13" height="13" viewBox="0 0 13 13" fill="none" xmlns="http://www.w3.org/2000/svg">
<path d="M9.76703 6.83299C11.0872 6.11821 11.7473 5.76082 11.9143 5.33058C12.0592 4.95726 12.0184 4.53669 11.8046 4.19861C11.5581 3.80902 10.8418 3.58687 9.40934 3.14256L3.99501 1.46324C2.78634 1.08835 2.18201 0.900915 1.78237 1.05288C1.43448 1.18516 1.16336 1.46682 1.04291 1.82106C0.904544 2.22801 1.10949 2.83036 1.51939 4.03506L3.33503 9.3714C3.83922 10.8532 4.09131 11.5942 4.49339 11.8297C4.84209 12.0339 5.26733 12.0558 5.63488 11.8883C6.05868 11.6952 6.38431 10.9839 7.03563 9.56137L7.51681 8.51042C7.62046 8.28397 7.67229 8.17074 7.74327 8.0719C7.8062 7.9841 7.88017 7.90498 7.96325 7.83627C8.05692 7.75891 8.16595 7.69987 8.38405 7.58181L9.76703 6.83299Z" stroke="#5CAEB9" stroke-width="2" stroke-linecap="round" stroke-linejoin="round"/>
</svg>
