<svg width="40" height="43" viewBox="0 0 40 43" fill="none" xmlns="http://www.w3.org/2000/svg">
<path d="M12.5 33.3732C12.5 39.0746 17.4778 40.5 19.9666 40.5C22.1444 40.5 26.5 39.0746 26.5 33.3732C26.5 31.1663 25.3214 29.6764 24.1808 28.8167C23.3848 28.2168 22.2656 28.7556 21.9918 29.7153C21.635 30.9663 20.3456 31.7526 19.6888 30.63C19.0882 29.6035 19.0882 28.0639 19.0882 27.1372C19.0882 25.8612 17.8078 25.0352 16.7778 25.7852C14.713 27.289 12.5 29.8394 12.5 33.3732Z" stroke="#5F5D74" stroke-width="3"/>
<path d="M37.5 22.5534C37.5 36.9106 25.0556 40.5 18.8333 40.5C13.3889 40.5 2.5 36.9106 2.5 22.5534C2.5 16.9374 5.50891 13.1657 8.38815 11.0117C9.99084 9.81274 12.0332 11.0065 12.2386 12.973L12.4153 14.6646C12.6305 16.7246 14.5427 18.4135 16.3133 17.285C19.7814 15.075 21.0294 9.76128 21.0294 6.85018V6.19677C21.0294 3.3102 24.0019 1.45243 26.3871 3.14398C31.6639 6.88638 37.5 13.4138 37.5 22.5534Z" stroke="#31303A" stroke-width="5"/>
</svg>
