<svg width="24" height="18" viewBox="0 0 24 18" fill="none" xmlns="http://www.w3.org/2000/svg">
<path d="M22.9999 9.00224H9.7381M1 3.72075H4.09616M2.23846 9.00224H4.09616M2.85769 14.2838H4.09616M9.6216 9.64869L8.5175 13.5557C8.09952 15.0348 7.89051 15.7743 8.06833 16.2159C8.22271 16.5993 8.53798 16.8824 8.91862 16.9793C9.35705 17.091 10.005 16.7456 11.3009 16.0548L20.9861 10.8918C22.1269 10.2837 22.6975 9.97958 22.8805 9.56802C23.0398 9.20993 23.0398 8.79454 22.8805 8.43645C22.6975 8.02489 22.1269 7.72081 20.9861 7.11264L11.2877 1.94271C9.99533 1.25382 9.34917 0.909367 8.91117 1.02056C8.53085 1.11712 8.21562 1.39945 8.06083 1.78218C7.88252 2.22299 8.0893 2.96098 8.50285 4.43696L9.62294 8.4346C9.68621 8.66039 9.71779 8.77328 9.7303 8.88829C9.74145 8.99035 9.74132 9.09334 9.72993 9.19541C9.71717 9.31041 9.68534 9.42317 9.6216 9.64869Z" stroke="#31303A" stroke-width="2" stroke-linecap="round" stroke-linejoin="round"/>
</svg>
