<svg width="26" height="26" viewBox="0 0 26 26" fill="none" xmlns="http://www.w3.org/2000/svg">
<path d="M13.0001 1V9M13.0001 1L16.3334 4.33333M13.0001 1L9.66682 4.33333M21.2356 9.00049C20.6823 9.48911 20.3334 10.2038 20.3334 11C20.3334 12.4728 21.5273 13.6667 23 13.6667C23.7962 13.6667 24.5109 13.3177 24.9995 12.7644M21.2356 9.00049C21.0781 9 20.911 9 20.7334 9H18.3334M21.2356 9.00049C22.402 9.00411 23.0414 9.03457 23.544 9.29065C24.0458 9.54631 24.4537 9.95425 24.7093 10.456C24.9654 10.9587 24.9959 11.598 24.9995 12.7644M24.9995 12.7644C25 12.9219 25 13.0891 25 13.2667V20.7333C25 20.9109 25 21.0781 24.9995 21.2356M24.9995 21.2356C24.5109 20.6823 23.7962 20.3333 23 20.3333C21.5273 20.3333 20.3334 21.5272 20.3334 23C20.3334 23.7961 20.6823 24.5109 21.2356 24.9995M24.9995 21.2356C24.9959 22.402 24.9654 23.0415 24.7093 23.544C24.4537 24.0457 24.0458 24.4537 23.544 24.7093C23.0414 24.9655 22.402 24.9959 21.2356 24.9995M21.2356 24.9995C21.0781 25 20.911 25 20.7334 25H5.26686C5.08926 25 4.92206 25 4.7646 24.9995M4.7646 24.9995C5.31793 24.5109 5.66686 23.7961 5.66686 23C5.66686 21.5272 4.473 20.3333 3.00022 20.3333C2.20383 20.3333 1.4889 20.6825 1.00024 21.2361M4.7646 24.9995C3.59821 24.9959 2.95875 24.9655 2.45622 24.7093C1.95449 24.4537 1.5465 24.0457 1.2909 23.544C1.0349 23.0415 1.00384 22.4021 1.00024 21.2361M1.00024 21.2361C0.999704 21.0785 1.00024 20.9112 1.00024 20.7333V13.2667C1.00024 13.0891 1.00024 12.9219 1.00077 12.7644M1.00077 12.7644C1.4893 13.3177 2.20409 13.6667 3.00022 13.6667C4.473 13.6667 5.66686 12.4728 5.66686 11C5.66686 10.2038 5.31793 9.48911 4.7646 9.00049M1.00077 12.7644C1.00437 11.598 1.03477 10.9587 1.2909 10.456C1.5465 9.95425 1.95449 9.54631 2.45622 9.29065C2.95875 9.03457 3.59821 9.00411 4.7646 9.00049M4.7646 9.00049C4.92206 9 5.08926 9 5.26686 9H7.66684M10.3335 17C10.3335 18.4728 11.5273 19.6667 13.0001 19.6667C14.4729 19.6667 15.6668 18.4728 15.6668 17C15.6668 15.5272 14.4729 14.3333 13.0001 14.3333C11.5273 14.3333 10.3335 15.5272 10.3335 17Z" stroke="#31303A" stroke-width="2" stroke-linecap="round" stroke-linejoin="round"/>
</svg>
