<svg width="22" height="25" viewBox="0 0 22 25" fill="none" xmlns="http://www.w3.org/2000/svg">
<path fill-rule="evenodd" clip-rule="evenodd" d="M16.0509 5.68182C16.03 5.59011 16.0084 5.4982 15.9857 5.4062C15.6913 4.20611 15.2276 2.90208 14.4715 1.875C13.6919 0.815932 12.5536 0 11 0C9.44642 0 8.30808 0.815932 7.52846 1.875C6.77239 2.90208 6.30869 4.20611 6.01421 5.40622C5.99164 5.4982 5.96994 5.59011 5.94908 5.68182H4.16413C2.40255 5.68182 0.942671 7.07335 0.825492 8.86414L0.00756113 21.3641C-0.121184 23.3318 1.41064 25 3.34621 25H18.6538C20.5893 25 22.1212 23.3318 21.9924 21.3641L21.1744 8.86414C21.0573 7.07335 19.5975 5.68182 17.8359 5.68182H16.0509ZM6.53859 11.3636C7.17767 11.3636 7.65178 10.8732 7.65396 10.2252C7.65412 10.1982 7.65444 10.1711 7.65488 10.1441C7.65586 10.0842 7.65786 9.99381 7.66195 9.8772C7.67013 9.64377 7.68662 9.30681 7.71981 8.90118C7.74334 8.61336 7.77505 8.29389 7.81761 7.95455H14.1824C14.2249 8.29389 14.2566 8.61336 14.2802 8.90119C14.3134 9.30681 14.3299 9.64377 14.338 9.8772C14.3421 9.99381 14.3442 10.0842 14.3452 10.1441C14.3456 10.172 14.3459 10.1999 14.346 10.2277C14.346 10.2277 14.346 11.3636 15.4614 11.3636C16.5767 11.3636 16.5767 10.2257 16.5767 10.2257C16.5766 10.1859 16.5762 10.1461 16.5755 10.1062C16.5743 10.033 16.572 9.92807 16.5673 9.79609C16.5581 9.53236 16.5397 9.1591 16.5031 8.71244C16.4842 8.47957 16.46 8.22514 16.4294 7.95455H17.8359C18.4231 7.95455 18.9097 8.41839 18.9488 9.01532L19.7666 21.5153C19.8096 22.1712 19.299 22.7273 18.6538 22.7273H3.34621C2.70102 22.7273 2.19041 22.1712 2.23332 21.5153L3.05125 9.01532C3.09031 8.41839 3.57694 7.95455 4.16413 7.95455H5.57056C5.53997 8.22514 5.51585 8.47957 5.4968 8.71245C5.46027 9.1591 5.44192 9.53236 5.43267 9.79609C5.42804 9.92807 5.42569 10.033 5.42449 10.1062C5.42385 10.1453 5.42337 10.1843 5.42324 10.2234C5.4224 10.8718 5.90098 11.3636 6.53859 11.3636ZM8.24901 5.68182H13.751C13.4931 4.71957 13.1426 3.85757 12.687 3.23864C12.2118 2.59316 11.6771 2.27273 11 2.27273C10.3229 2.27273 9.78817 2.59316 9.31303 3.23864C8.85741 3.85757 8.50688 4.71957 8.24901 5.68182Z" fill="#31303A"/>
</svg>
