<svg width="16" height="15" viewBox="0 0 16 15" fill="none" xmlns="http://www.w3.org/2000/svg">
<path d="M12.1316 14.113C12.8723 14.113 13.4728 13.5126 13.4728 12.7718C13.4728 12.0311 12.8723 11.4307 12.1316 11.4307C11.3909 11.4307 10.7904 12.0311 10.7904 12.7718C10.7904 13.5126 11.3909 14.113 12.1316 14.113Z" stroke="#5FB057" stroke-width="1.4" stroke-linecap="round" stroke-linejoin="round"/>
<path d="M5.42565 14.113C6.16637 14.113 6.76683 13.5126 6.76683 12.7718C6.76683 12.0311 6.16637 11.4307 5.42565 11.4307C4.68494 11.4307 4.08447 12.0311 4.08447 12.7718C4.08447 13.5126 4.68494 14.113 5.42565 14.113Z" stroke="#5FB057" stroke-width="1.4" stroke-linecap="round" stroke-linejoin="round"/>
<path d="M1 1.03547C1 1.03547 4.11154 0.995233 3.68236 3.71783L3.21969 6.44045C3.15108 6.76689 3.15781 7.10467 3.23946 7.42816C3.32111 7.75158 3.4755 8.05214 3.69083 8.30697C3.90617 8.56172 4.17681 8.76397 4.48213 8.89843C4.78745 9.03281 5.1194 9.09578 5.45273 9.08257H10.8174C11.5604 9.06051 12.2739 8.78724 12.8415 8.30737C13.409 7.8275 13.7971 7.16931 13.9424 6.44045L14.4052 3.68431C14.4784 3.35419 14.4748 3.01164 14.3946 2.68313C14.3144 2.35462 14.1598 2.04892 13.9427 1.78968C13.7256 1.53043 13.4518 1.32456 13.1424 1.18797C12.8331 1.05139 12.4965 0.987749 12.1586 1.00195H6.32449" stroke="#5FB057" stroke-width="2" stroke-linecap="round" stroke-linejoin="round"/>
</svg>
