<svg width="28" height="27" viewBox="0 0 28 27" fill="none" xmlns="http://www.w3.org/2000/svg">
<path d="M28 3.29393C27.9995 4.16647 27.6567 5.00315 27.0469 5.62033C26.4372 6.2375 25.6102 6.58473 24.7476 6.58581H23.7274V23.7102C23.7263 24.5823 23.3833 25.4185 22.7736 26.0352C22.1639 26.652 21.3373 26.9989 20.475 27H3.25338C2.82614 27 2.40308 26.9149 2.00836 26.7495C1.61365 26.5841 1.255 26.3417 0.952892 26.0361C0.650788 25.7305 0.411146 25.3678 0.247648 24.9685C0.0841511 24.5692 0 24.1413 0 23.7091C0 23.277 0.0841511 22.849 0.247648 22.4498C0.411146 22.0505 0.650788 21.6877 0.952892 21.3821C1.255 21.0766 1.61365 20.8341 2.00836 20.6688C2.40308 20.5034 2.82614 20.4183 3.25338 20.4183H4.27163V3.29393C4.27163 2.42068 4.61444 1.58316 5.2247 0.96549C5.83495 0.347817 6.66271 0.000540712 7.52602 0H24.7456C25.6086 0.000540326 26.436 0.347537 27.0462 0.964768C27.6564 1.582 27.9995 2.41899 28 3.29189V3.29393ZM3.25338 24.7401H17.3819C17.1638 24.0712 17.1638 23.3491 17.3819 22.6802H3.25741C2.98735 22.6802 2.72835 22.7887 2.53739 22.9818C2.34643 23.175 2.23915 23.437 2.23915 23.7102C2.23915 23.9833 2.34643 24.2453 2.53739 24.4385C2.72835 24.6316 2.98735 24.7401 3.25741 24.7401H3.25338ZM21.4912 3.29393C21.4908 2.94412 21.5452 2.59647 21.6525 2.26394H7.52803C7.30135 2.26353 7.08114 2.34041 6.90296 2.48217L6.89893 2.48421C6.77713 2.58005 6.6787 2.70289 6.61123 2.84328C6.54376 2.98366 6.50905 3.13784 6.50978 3.29393V20.4183H19.2874C19.5658 20.415 19.8372 20.5075 20.0569 20.6805C20.2767 20.8535 20.4319 21.0969 20.4972 21.3708C20.5738 21.6329 20.566 21.9128 20.4751 22.1702C20.3841 22.4275 20.2146 22.649 19.9911 22.8025C19.8331 22.8893 19.7007 23.0168 19.6072 23.1722C19.5137 23.3275 19.4626 23.5051 19.459 23.6869C19.4553 23.8687 19.4994 24.0482 19.5865 24.2072C19.6737 24.3662 19.801 24.4991 19.9554 24.5922C20.1098 24.6854 20.2858 24.7355 20.4655 24.7376C20.6453 24.7396 20.8224 24.6935 20.9788 24.6039C21.1352 24.5143 21.2654 24.3844 21.3561 24.2274C21.4468 24.0705 21.4948 23.892 21.4953 23.7102L21.4912 3.29393ZM19.7572 6.22685H8.14302V8.48466H19.7572V6.22685ZM19.7572 10.8363H8.14302V13.0941H19.7572V10.8363ZM19.7572 15.4458H8.14302V17.7056H19.7572V15.4458ZM25.7639 3.29393C25.7633 3.02092 25.6559 2.75925 25.465 2.56621C25.2742 2.37317 25.0155 2.26448 24.7456 2.26394C24.5188 2.26289 24.2984 2.33984 24.1206 2.48217H24.1165C23.9942 2.57812 23.8953 2.70122 23.8275 2.84197C23.7596 2.98272 23.7247 3.13735 23.7253 3.29393V4.32392H24.7456C25.0155 4.32338 25.2742 4.21469 25.465 4.02164C25.6559 3.8286 25.7633 3.56693 25.7639 3.29393Z" fill="#31303A"/>
</svg>
