<svg width="31" height="35" viewBox="0 0 31 35" fill="none" xmlns="http://www.w3.org/2000/svg">
<g filter="url(#filter0_d_357_12)">
<path d="M15.1749 20.0381L14.7169 20C14.3385 19.9682 13.9846 19.9096 13.6573 19.8193H13.6563C13.4659 19.7672 13.2051 19.6178 12.961 19.4502C12.8899 19.4014 12.8257 19.3526 12.7696 19.3105L13.0938 18.9863C13.1334 19.0162 13.1759 19.05 13.2227 19.083C13.4112 19.2159 13.7049 19.404 13.9962 19.4834C14.4389 19.6041 14.8825 19.665 15.3272 19.665C15.8845 19.665 16.3874 19.5674 16.8096 19.3398L16.8106 19.3389C17.041 19.2138 17.2375 19.0415 17.3731 18.8135C17.5085 18.5856 17.5664 18.3311 17.5665 18.0684C17.5665 17.6916 17.4503 17.336 17.17 17.0654C16.8881 16.7934 16.4788 16.6776 16.0557 16.6309L16.043 16.6299L14.7735 16.5195H14.7725C14.0853 16.4516 13.6169 16.2654 13.3145 16.0098V16.0088C13.0517 15.7868 12.88 15.4258 12.8799 14.8242C12.8799 14.5859 12.916 14.3777 12.9825 14.1953L13.0596 14.0205C13.183 13.7826 13.3488 13.5835 13.5616 13.4189C13.7803 13.2516 14.0398 13.1202 14.3438 13.0332H14.3448C14.4651 12.9984 14.5985 12.9732 14.754 12.9482L15.1749 12.8799V11.9326H15.5899V12.8867L16.0411 12.9307C16.3497 12.9608 16.6356 13.0097 16.8946 13.0811L16.8956 13.082C17.0751 13.131 17.2817 13.2371 17.459 13.3467C17.4807 13.3601 17.5008 13.3749 17.5206 13.3877L17.2325 13.6797C17.2142 13.6687 17.1958 13.656 17.1758 13.6445C17.0231 13.5566 16.7931 13.4383 16.5577 13.377L16.5567 13.376L16.2667 13.3115C15.9736 13.2558 15.671 13.2275 15.3585 13.2275C14.8207 13.2275 14.3205 13.3265 13.9561 13.6182C13.6011 13.9026 13.4171 14.2929 13.4171 14.7451C13.4171 15.124 13.5364 15.4858 13.8399 15.749C14.0535 15.9358 14.3362 16.0447 14.6456 16.1055L14.963 16.1514L14.9708 16.1523L16.0821 16.2461V16.2471C16.7545 16.3062 17.2273 16.4658 17.545 16.6865L17.6719 16.7852C17.9587 17.0327 18.1338 17.4111 18.1339 18.0049C18.1338 18.356 18.0635 18.6376 17.9415 18.8672C17.8105 19.1127 17.631 19.3186 17.3975 19.4902C17.1644 19.661 16.875 19.7963 16.5206 19.8877C16.3682 19.9263 16.2027 19.955 16.0225 19.9795L15.5899 20.0381V21.1602H15.1749V20.0381Z" fill="#31303A" stroke="black"/>
<path d="M11.042 0.5C11.7792 0.500013 12.5634 0.648922 13.458 1.04102L13.8477 1.22363C14.4071 1.50424 14.9831 1.6084 15.5566 1.6084C16.4825 1.60836 17.4399 1.33471 18.334 1.08984C19.2564 0.837223 20.1354 0.60646 21.0137 0.606445C21.3674 0.606445 21.925 0.781234 22.4512 0.994141C22.7015 1.09546 22.9257 1.19698 23.0869 1.27344C23.1113 1.285 23.134 1.29637 23.1553 1.30664L21.2295 5.98633L20.6904 7.29395L21.9316 6.61523L25.2354 4.80859V4.80762C25.3723 4.73261 25.5401 4.76761 25.6377 4.88281L25.6758 4.9375C25.7513 5.07514 25.7165 5.24353 25.6016 5.34082L25.5469 5.37793L22.9375 6.80469L21.8252 7.41309L23.0527 7.72754L26.0205 8.48926V8.49023C26.1953 8.53577 26.2997 8.71296 26.2559 8.88672C26.211 9.06113 26.0344 9.16482 25.8613 9.12012H25.8604L22.1592 8.16895L20.7168 7.79883L21.6436 8.96484C22.8842 10.5265 25.0236 13.5636 25.8877 16.8477C26.5846 19.4954 26.1398 21.7116 24.5205 23.2803C22.8723 24.8767 19.9094 25.9023 15.3525 25.9023C10.7958 25.9023 7.83276 24.8767 6.18457 23.2803C4.56535 21.7116 4.1205 19.4954 4.81738 16.8477C5.79817 13.1204 8.42016 9.71558 9.5 8.42871L9.85254 8.00879L9.40137 7.69629C9.31602 7.63727 9.26176 7.5397 9.26172 7.43066C9.26172 7.30715 9.33288 7.19621 9.44629 7.14062L9.86719 6.93457L9.68848 6.50098L7.56641 1.34863C7.61609 1.33044 7.673 1.30968 7.73633 1.28711C7.9856 1.19829 8.33222 1.08004 8.7207 0.961914C9.51614 0.720053 10.4236 0.5 11.042 0.5ZM11.3945 7.91602L10.7324 8.62988L10.7266 8.63574C10.7237 8.63892 10.7022 8.66314 10.6787 8.68945C10.6488 8.72302 10.606 8.77062 10.5527 8.83203C10.4455 8.9555 10.2942 9.13385 10.1104 9.35938C9.74284 9.81016 9.24476 10.4521 8.71191 11.2295C7.65081 12.7775 6.43065 14.8924 5.84473 17.1191C5.33221 19.068 5.49994 20.7491 6.47852 22.0195V22.0205C7.21629 22.9773 8.40166 23.6774 9.89453 24.1396C11.3919 24.6033 13.2377 24.8398 15.3525 24.8398C17.4671 24.8398 19.3131 24.6033 20.8105 24.1396C22.3034 23.6774 23.4888 22.9772 24.2266 22.0205V22.0195C25.2052 20.7491 25.3727 19.0682 24.8594 17.1191C24.2703 14.8789 23.0507 12.7646 21.9902 11.2197C21.4578 10.4441 20.9609 9.80429 20.5938 9.35547C20.4101 9.13101 20.2586 8.95399 20.1514 8.83105C20.098 8.76986 20.0554 8.72197 20.0254 8.68848C20.0024 8.66283 19.9808 8.63838 19.9775 8.63477L19.9717 8.62988L19.3096 7.91602L19.1611 7.75586H11.543L11.3945 7.91602ZM11.042 1.5625C10.5303 1.5625 10.0238 1.65408 9.50879 1.79297L8.96094 1.94043L9.17676 2.46582L10.958 6.7959L11.0859 7.10547H19.6191L19.7461 6.7959L21.5723 2.36133L21.8516 1.68262L21.1182 1.6709L21.0225 1.66895H21.0137C20.2251 1.66897 19.3553 1.91102 18.5303 2.13672V2.1377C17.5333 2.41093 16.5753 2.67087 15.5566 2.6709C14.7587 2.6709 14.0263 2.50175 13.373 2.1748H13.3721C12.5579 1.76812 11.8119 1.56252 11.042 1.5625Z" fill="#31303A" stroke="black"/>
</g>
<defs>
<filter id="filter0_d_357_12" x="0" y="0" width="30.7662" height="34.4023" filterUnits="userSpaceOnUse" color-interpolation-filters="sRGB">
<feFlood flood-opacity="0" result="BackgroundImageFix"/>
<feColorMatrix in="SourceAlpha" type="matrix" values="0 0 0 0 0 0 0 0 0 0 0 0 0 0 0 0 0 0 127 0" result="hardAlpha"/>
<feOffset dy="4"/>
<feGaussianBlur stdDeviation="2"/>
<feComposite in2="hardAlpha" operator="out"/>
<feColorMatrix type="matrix" values="0 0 0 0 0 0 0 0 0 0 0 0 0 0 0 0 0 0 0.25 0"/>
<feBlend mode="normal" in2="BackgroundImageFix" result="effect1_dropShadow_357_12"/>
<feBlend mode="normal" in="SourceGraphic" in2="effect1_dropShadow_357_12" result="shape"/>
</filter>
</defs>
</svg>
