<svg width="23" height="27" viewBox="0 0 23 27" fill="none" xmlns="http://www.w3.org/2000/svg">
<path d="M14.383 19.1026C14.2154 19.4168 13.985 19.6795 13.6933 19.8938C13.4008 20.1082 13.0503 20.2677 12.6434 20.3724C12.4654 20.4176 12.2792 20.449 12.0899 20.4748V21.66H10.675V20.4981C10.2721 20.4643 9.88699 20.4014 9.52437 20.3015C8.97084 20.15 8.24564 19.5376 8.24564 19.5376C8.18361 19.5014 8.14251 19.4377 8.13364 19.3668C8.12477 19.2959 8.14895 19.2241 8.19969 19.1734L8.90875 18.4643C8.98528 18.3886 9.10373 18.3741 9.19562 18.4305C9.19562 18.4305 9.72579 18.8914 10.1279 19.001C10.5299 19.1106 10.9288 19.1654 11.3268 19.1654C11.8288 19.1654 12.2437 19.0768 12.5725 18.8995C12.9021 18.7206 13.0664 18.4451 13.0664 18.068C13.0664 17.7964 12.9858 17.5821 12.823 17.425C12.6611 17.2687 12.3871 17.1704 12.0004 17.1277L10.7305 17.0181C9.97878 16.9447 9.39864 16.7353 8.99172 16.3912C8.5832 16.0463 8.38018 15.5234 8.38018 14.824C8.38018 14.4373 8.45836 14.0924 8.61549 13.7902C8.77261 13.4873 8.98615 13.231 9.25766 13.0216C9.52921 12.8137 9.84584 12.6558 10.206 12.5526C10.3567 12.5091 10.5146 12.4801 10.675 12.4543V11.4326H12.0899V12.4333C12.4203 12.4656 12.7345 12.5187 13.027 12.5993C13.5233 12.7347 14.0446 13.1424 14.0446 13.1424C14.1099 13.1762 14.1542 13.2391 14.1655 13.3116C14.1768 13.3857 14.1526 13.4582 14.1011 13.5114L13.4363 14.1858C13.3654 14.2575 13.2558 14.2761 13.1656 14.2293C13.1656 14.2293 12.7715 13.9489 12.4315 13.8603C12.0915 13.7725 11.7346 13.7274 11.3583 13.7274C10.8668 13.7274 10.5034 13.8209 10.2689 14.0086C10.0336 14.1971 9.9168 14.4429 9.9168 14.745C9.9168 15.0173 9.999 15.226 10.1674 15.3719C10.3341 15.5185 10.6162 15.6136 11.0134 15.6539L12.1261 15.749C12.9512 15.8215 13.5756 16.0407 13.9987 16.4065C14.4225 16.7723 14.6336 17.3057 14.6336 18.0051C14.6336 18.4242 14.5498 18.7892 14.383 19.1026Z" fill="#31303A"/>
<path d="M22.7402 9.01146C22.8531 8.56988 22.5871 8.12032 22.1456 8.00589L19.1772 7.24367L21.787 5.81668C22.1867 5.59835 22.3333 5.09716 22.1142 4.69751C21.8958 4.29786 21.3946 4.15043 20.995 4.36959L17.6914 6.17688L19.713 1.26506C19.738 1.20545 19.7364 1.13774 19.7098 1.07895C19.6824 1.02011 19.6324 0.974991 19.5704 0.954054C19.5704 0.954054 17.9371 0.106384 17.0138 0.106384C15.1025 0.106384 13.2461 1.10793 11.5564 1.10793C11.0448 1.10793 10.5485 1.01609 10.0715 0.776765C8.94913 0.215966 7.96934 0 7.0419 0C5.64153 0 3.15906 0.96772 3.15906 0.96772C3.09377 0.984634 3.03818 1.02816 3.00755 1.08937C2.97692 1.14981 2.97372 1.22154 2.99951 1.28435L5.22661 6.69168C4.95186 6.82623 4.76168 7.10505 4.76168 7.43055C4.76168 7.71097 4.90266 7.95912 5.11703 8.10737C4.02849 9.40461 1.34454 12.8806 0.334124 16.7208C-1.12431 22.2619 2.1277 26.4027 11.3527 26.4027C20.5776 26.4027 23.8296 22.2619 22.3712 16.7208C21.4801 13.3335 19.2868 10.2297 18.0347 8.65368L21.7355 9.60449C22.177 9.71892 22.6266 9.45303 22.7402 9.01146ZM7.0419 2.06271C7.7163 2.06271 8.38591 2.24077 9.1489 2.62191C9.87647 2.98613 10.6863 3.17064 11.5565 3.17064C12.6531 3.17064 13.6748 2.89022 14.6626 2.61949C15.5079 2.38826 16.3063 2.16909 17.0138 2.16909L17.1097 2.17069L15.2839 6.60552H7.42061L5.6391 2.27543C6.129 2.14331 6.58908 2.06271 7.0419 2.06271ZM19.8307 21.7149C18.5254 23.4077 15.5143 24.34 11.3527 24.34C7.19016 24.34 4.17989 23.4077 2.87461 21.7149C2.02292 20.6093 1.83923 19.1058 2.3283 17.2462C3.45794 12.9532 7.06449 9.00826 7.09914 8.96959L7.76148 8.25568H14.9431L15.6054 8.96959C15.6417 9.00986 19.2401 12.9258 20.3763 17.2462C20.8661 19.1058 20.6824 20.6093 19.8307 21.7149Z" fill="#31303A"/>
</svg>
