<svg width="18" height="15" viewBox="0 0 18 15" fill="none" xmlns="http://www.w3.org/2000/svg">
<path d="M1.99866 9.56588C1.33288 8.72853 1 8.30986 1 7.06665C1 5.82344 1.33288 5.40479 1.99866 4.56744C3.32803 2.89549 5.55751 1 8.83331 1C12.1091 1 14.3386 2.89549 15.668 4.56744C16.3337 5.40479 16.6666 5.82344 16.6666 7.06665C16.6666 8.30986 16.3337 8.72853 15.668 9.56588C14.3386 11.2378 12.1091 13.1333 8.83331 13.1333C5.55751 13.1333 3.32803 11.2378 1.99866 9.56588Z" stroke="#708BE7" stroke-width="2"/>
<path d="M11.1833 7.06601C11.1833 8.32249 10.1312 9.341 8.83333 9.341C7.53543 9.341 6.48334 8.32249 6.48334 7.06601C6.48334 5.80953 7.53543 4.79102 8.83333 4.79102C10.1312 4.79102 11.1833 5.80953 11.1833 7.06601Z" stroke="#708BE7" stroke-width="2"/>
</svg>
