<svg width="72" height="84" viewBox="0 0 72 84" fill="none" xmlns="http://www.w3.org/2000/svg">
<path d="M69.2975 66.8181C66.8419 65.8186 65.7915 64.4923 65.893 62.5133C65.9976 60.2034 64.679 58.5114 64.0527 57.8429C64.431 56.4066 65.5367 51.438 64.0538 47.1223C62.4603 42.5029 57.5952 35.4478 52.5753 28.5127C50.5203 25.6647 50.4231 22.5689 50.3108 18.9842C50.2032 15.5651 50.0819 11.6895 48.1633 7.38118C46.0773 2.69004 41.8914 0 36.6785 0C33.5775 0 30.3943 0.963166 27.9448 2.6423C22.9287 6.08268 23.5917 13.5836 24.0305 18.5471C24.0906 19.2268 24.1472 19.8688 24.1801 20.4169C24.4722 25.2781 24.2065 27.8401 23.8589 28.6189C23.634 29.1277 22.527 30.576 21.3555 32.1095C20.1439 33.6953 18.7703 35.4928 17.6444 37.1679C16.301 39.1834 15.2165 42.2642 14.1677 45.2434C13.4004 47.4235 12.6756 49.4827 11.97 50.7133C10.6326 53.0806 10.9654 55.2879 11.2432 56.3081C10.7369 56.6576 10.0055 57.3458 9.38807 58.6429C8.64183 60.2255 7.12768 61.0759 3.97912 61.6776C2.53223 61.9717 1.53451 62.5764 1.01286 63.4746C0.253727 64.7818 0.667202 66.4244 1.04444 67.5469C1.60178 69.1971 1.25447 70.2416 0.622999 72.1379C0.477486 72.5755 0.312481 73.071 0.145279 73.6176C-0.118016 74.48 -0.0230212 75.2642 0.426969 75.9483C1.61605 77.7548 5.08584 78.3919 8.65776 78.811C10.7905 79.0626 13.1247 79.9103 15.3824 80.7305C17.5944 81.5338 19.8817 82.3646 21.9609 82.6168C22.2769 82.6563 22.5899 82.6762 22.8916 82.6762C26.0308 82.6762 27.4492 80.6061 27.8989 79.7556C29.0265 79.527 32.9155 78.7947 36.9237 78.6964C40.9256 78.5829 44.7976 79.3682 45.8944 79.6124C46.2392 80.2683 47.1483 81.7665 48.5974 82.5384C49.3938 82.9712 50.5022 83.2192 51.6375 83.2192H51.6378C52.8502 83.2192 55.1567 82.9344 56.9822 81.0258C58.803 79.1082 63.3523 76.6601 66.6744 74.8727C67.4157 74.4738 68.1092 74.1005 68.7173 73.7635C70.5835 72.7354 71.6018 71.2664 71.5109 69.7333C71.4351 68.4599 70.587 67.3428 69.2975 66.8181ZM27.9857 66.4489C27.7534 64.8227 25.6484 63.2099 23.2107 61.3425C21.2174 59.8154 18.9581 58.0847 18.3357 56.6189C17.0494 53.5952 18.0634 48.2784 19.8312 45.5406C20.7048 44.1698 21.4184 42.0909 22.1086 40.0805C22.8537 37.9097 23.6244 35.6653 24.4862 34.6827C25.851 33.1488 27.1123 30.164 27.3358 27.8118C28.6138 29.0243 30.5964 30.5629 32.4279 30.5629C32.7099 30.5629 32.9836 30.5264 33.2452 30.453C34.4983 30.0934 36.3414 29.035 38.1238 28.0118C39.6604 27.1294 41.5554 26.0412 42.2684 25.9422C43.491 27.6868 50.595 43.3106 51.3209 48.328C51.8953 52.298 51.2885 55.5799 50.9835 56.8653C50.738 56.832 50.4454 56.805 50.1379 56.805C48.1592 56.805 47.6353 57.8784 47.4989 58.5193C47.148 60.1845 47.1109 65.5092 47.1071 66.7057C46.3916 67.6091 42.7733 71.8634 37.5785 72.6282C35.4625 72.9338 33.4866 73.0888 31.7058 73.0888C30.1837 73.0888 29.2124 72.972 28.809 72.9111L26.1986 69.9428C27.2279 69.4378 28.2569 68.372 27.9857 66.4489ZM31.2981 17.5032C31.2166 17.5381 31.1364 17.5755 31.0576 17.6153C31.0497 17.4396 31.0313 17.2614 31.003 17.0827C30.718 15.4524 29.6302 14.2691 28.417 14.2691C28.3272 14.2691 28.2369 14.2759 28.1378 14.2909C27.416 14.4104 26.8498 14.9493 26.5396 15.7133C26.8117 14.0369 27.7674 12.7957 28.9013 12.7957C30.2329 12.7957 31.3577 14.579 31.3577 16.6898C31.3577 16.9558 31.3382 17.2205 31.2981 17.5032ZM41.6449 18.7602C41.7668 18.3744 41.8327 17.9569 41.8327 17.5236C41.8327 15.6098 40.6109 14.1105 39.0512 14.1105C37.5269 14.1105 36.2867 15.6415 36.2867 17.5236C36.2867 17.6519 36.293 17.7804 36.3051 17.9086C36.2244 17.8778 36.1456 17.8478 36.0687 17.8189C35.8933 17.2909 35.8046 16.74 35.8046 16.1776C35.8046 13.8892 37.2762 12.0273 39.0855 12.0273C40.8945 12.0273 42.3664 13.8892 42.3664 16.1776C42.3664 17.1296 42.102 18.0382 41.6449 18.7602ZM40.3108 23.2142C40.2848 23.3299 40.2293 23.3812 39.616 23.6983C39.3063 23.8584 38.9208 24.0579 38.4384 24.3498L38.1161 24.5438C36.8207 25.3242 33.7878 27.152 32.9644 27.2592C32.4051 27.334 32.0592 27.1185 31.2814 26.5932C31.1059 26.4745 30.9192 26.3485 30.7202 26.2216C29.3181 25.3073 28.4162 24.3002 28.3143 23.9064C28.7714 23.5553 29.9045 22.6764 30.4846 22.1561C31.6622 21.068 32.8471 20.3367 33.4336 20.3367C33.4646 20.3367 33.4926 20.3389 33.5217 20.3444C34.2108 20.4652 35.9106 21.1395 37.1521 21.6317C37.7259 21.8592 38.2215 22.0557 38.5702 22.1801C39.6687 22.555 40.2414 23.0347 40.3108 23.2142ZM50.1802 74.0656C50.7998 71.2877 51.5137 67.5087 51.3981 65.2809C51.3714 64.7747 51.3264 64.2238 51.2828 63.6912C51.2012 62.6953 51.0801 61.2151 51.2051 60.7761C51.2298 60.7646 51.2572 60.7548 51.2877 60.7463C51.2929 62.02 51.5713 64.5605 53.6156 65.4465C54.2249 65.7106 54.9211 65.8443 55.6849 65.8443C57.7328 65.8443 60.005 64.8459 60.9357 63.921C61.4837 63.3764 61.9447 62.71 62.2676 62.1824C62.3381 62.3878 62.3815 62.6563 62.3587 63.0023C62.2371 64.8809 63.1558 67.3731 64.9041 68.2915L65.1586 68.4244C65.7813 68.7491 67.4352 69.6121 67.4618 70.0214C67.4618 70.0214 67.4478 70.0697 67.3556 70.1548C66.9413 70.5311 65.4831 71.271 64.073 71.9867C61.5716 73.256 58.7363 74.6948 57.4629 76.0258C55.6701 77.9008 53.6423 79.1603 52.4178 79.1603C52.2703 79.1603 52.1361 79.1417 52.0166 79.1041C50.6867 78.6921 49.5921 76.7851 50.1802 74.0656ZM4.84863 66.9788C4.713 66.348 4.60592 65.85 4.72096 65.3676C4.80442 65.0102 6.57995 64.6271 7.33826 64.4637C8.40435 64.2337 9.50695 63.996 10.2279 63.5611C11.2029 62.9742 11.7308 61.8918 12.1965 60.9368C12.5336 60.2462 12.8817 59.5321 13.296 59.2978C13.3194 59.2841 13.3551 59.2683 13.4232 59.2683C14.1993 59.2683 15.828 60.8899 16.7664 62.3411C17.0044 62.707 17.4453 63.4402 17.9555 64.289C19.4811 66.826 21.5702 70.3008 22.6613 71.4653C23.6444 72.5122 25.236 74.5251 24.8445 76.2514C24.5579 77.5908 23.0319 78.6801 22.672 78.921C22.5413 78.9504 22.3796 78.9655 22.1893 78.9655C20.1011 78.9655 15.9674 77.2389 13.7466 76.3112L13.4179 76.1739C12.1778 75.6571 10.1532 75.3316 8.19541 75.0167C6.63761 74.766 4.50434 74.423 4.15072 74.1131C3.86408 73.7935 4.19657 72.7548 4.48979 71.8383C4.70092 71.1796 4.91891 70.4986 5.03834 69.7856C5.20774 68.6484 5.00842 67.7226 4.84863 66.9788Z" fill="#96DAE3"/>
</svg>
