<svg width="63" height="75" viewBox="0 0 63 75" fill="none" xmlns="http://www.w3.org/2000/svg">
<path d="M35.485 18.0928C36.4673 18.2964 37.4679 18.398 38.4711 18.3961C40.2016 18.4034 41.9166 18.0693 43.5179 17.4128C45.1191 16.7562 46.5751 15.7903 47.8024 14.5703C49.3753 12.9665 50.525 10.997 51.148 8.83885C51.771 6.68067 51.8479 4.40147 51.3716 2.20622C51.2882 1.73561 51.0622 1.302 50.7242 0.964044C50.3863 0.626084 49.9527 0.400085 49.482 0.316619C47.2906 -0.165544 45.0138 -0.0961014 42.8558 0.518716C40.6978 1.13353 38.7263 2.27449 37.118 3.8392C35.5533 5.44746 34.4123 7.41903 33.7975 9.577C33.1827 11.735 33.1133 14.0118 33.5954 16.2032C33.6789 16.6738 33.9049 17.1075 34.2429 17.4454C34.5808 17.7834 35.0144 18.0094 35.485 18.0928ZM40.4773 7.15183C41.3349 6.30367 42.3626 5.64685 43.4925 5.22465C44.6224 4.80245 45.8289 4.62444 47.0326 4.70235C47.1105 5.90604 46.9325 7.11257 46.5103 8.24247C46.0881 9.37236 45.4312 10.4 44.5831 11.2576C43.7197 12.0911 42.6882 12.7304 41.5576 13.1327C40.4271 13.535 39.2236 13.6911 38.0278 13.5905C37.9633 12.4096 38.1434 11.2282 38.5568 10.1202C38.9703 9.01226 39.6083 8.00167 40.4306 7.15183H40.4773Z" fill="#96DAE3"/>
<path d="M61.519 54.1812C59.4251 53.0519 57.6535 51.4076 56.3717 49.4034C55.0898 47.3993 54.34 45.1015 54.1929 42.727C54.0458 40.3526 54.5063 37.9798 55.531 35.8328C56.5557 33.6858 58.1108 31.8353 60.0493 30.4563C60.3086 30.2712 60.5272 30.0349 60.6917 29.7621C60.8562 29.4893 60.9631 29.1856 61.0058 28.8699C61.0518 28.5529 61.0321 28.2298 60.9478 27.9208C60.8635 27.6118 60.7165 27.3234 60.5159 27.0736C57.7509 23.7152 54.1904 21.101 50.1581 19.4686C47.0437 18.2201 43.5679 18.2201 40.4535 19.4686L36.2777 21.1482C34.2773 21.9419 32.0494 21.9419 30.049 21.1482L25.8499 19.4686C22.7355 18.2201 19.2597 18.2201 16.1453 19.4686C10.0737 21.9275 5.16217 26.6 2.40363 32.5415C-0.354911 38.483 -0.754683 45.2502 1.28513 51.4751L2.10163 53.4347C4.29238 58.8743 7.23726 63.9788 10.8498 68.5981C12.764 71.4603 15.657 73.5254 18.9857 74.406C22.3145 75.2865 25.8502 74.9218 28.9292 73.3805C30.2377 72.7165 31.6844 72.3705 33.1517 72.3705C34.619 72.3705 36.0656 72.7165 37.3741 73.3805C40.4299 74.9069 43.935 75.2754 47.2414 74.4177C50.5478 73.56 53.4319 71.5342 55.3603 68.7148C58.1313 65.1468 60.5236 61.3002 62.4988 57.2372C62.7575 56.6992 62.8001 56.0825 62.6179 55.514C62.4356 54.9455 62.0423 54.4685 61.519 54.1812ZM51.5811 66.0087C50.301 67.9276 48.3632 69.3118 46.1329 69.9006C43.9026 70.4893 41.534 70.2418 39.4737 69.2047C37.5066 68.2372 35.3438 67.734 33.1517 67.734C30.9596 67.734 28.7967 68.2372 26.8297 69.2047C24.7404 70.2395 22.344 70.4714 20.095 69.8565C17.8461 69.2416 15.9011 67.8226 14.629 65.8687C11.2537 61.5402 8.49054 56.7675 6.41738 51.6851L5.67087 49.8655C4.0402 44.7812 4.39426 39.2682 6.66191 34.4342C8.92957 29.6003 12.9427 25.8038 17.8949 23.8077C19.8828 22.991 22.1124 22.991 24.1003 23.8077L28.2994 25.4873C31.4161 26.7239 34.8873 26.7239 38.004 25.4873L42.2031 23.8077C44.1992 22.9922 46.4356 22.9922 48.4318 23.8077C51.0366 24.8364 53.4143 26.3661 55.4303 28.3101C53.4245 30.2064 51.8644 32.5241 50.8623 35.0961C49.8602 37.668 49.4411 40.4303 49.6353 43.1838C49.8294 45.9372 50.6319 48.6134 51.9849 51.0193C53.338 53.4252 55.2078 55.5011 57.4598 57.0973C55.7497 60.225 53.7834 63.2056 51.5811 66.0087Z" fill="#96DAE3"/>
</svg>
