<svg width="66" height="66" viewBox="0 0 66 66" fill="none" xmlns="http://www.w3.org/2000/svg">
<path d="M2.03197 34.5399H24.3818C24.9206 34.5399 25.4374 34.754 25.8184 35.135C26.1995 35.5161 26.4136 36.0328 26.4136 36.5717V56.5443C26.4165 56.8412 26.3544 57.1351 26.2315 57.4054C26.1087 57.6757 25.9281 57.9158 25.7024 58.1088C25.4769 58.2981 25.2129 58.4361 24.9287 58.5133C24.6445 58.5905 24.347 58.605 24.0567 58.5558L1.70688 54.8579C1.2261 54.78 0.789303 54.532 0.476041 54.1591C0.162779 53.7862 -0.00609962 53.3131 0.000168414 52.8261V36.5717C0.000168414 36.0328 0.214232 35.5161 0.595268 35.135C0.976305 34.754 1.4931 34.5399 2.03197 34.5399ZM4.06377 51.0991L22.35 54.1468V38.6035H4.06377V51.0991Z" fill="#96DAE3"/>
<path d="M62.6604 65.0172L32.1834 59.9377C31.7027 59.8598 31.2659 59.6118 30.9526 59.2389C30.6393 58.8659 30.4705 58.3929 30.4767 57.9059V36.572C30.4767 36.0331 30.6908 35.5164 31.0718 35.1353C31.4529 34.7543 31.9697 34.5402 32.5085 34.5402H62.9855C63.5244 34.5402 64.0412 34.7543 64.4222 35.1353C64.8032 35.5164 65.0173 36.0331 65.0173 36.572V62.9854C65.0173 63.2789 64.9538 63.5689 64.831 63.8354C64.7082 64.102 64.5292 64.3388 64.3062 64.5296C64.0841 64.726 63.8216 64.8715 63.5373 64.9557C63.253 65.0399 62.9537 65.0609 62.6604 65.0172ZM60.9537 38.6038H34.5403V56.1789L60.9537 60.5879V38.6038Z" fill="#96DAE3"/>
<path d="M1.70688 10.1589L24.0567 6.44074H24.3817C24.9206 6.44074 25.4374 6.6548 25.8184 7.03584C26.1995 7.41688 26.4135 7.93367 26.4135 8.47254V28.4451C26.4135 28.984 26.1995 29.5008 25.8184 29.8818C25.4374 30.2629 24.9206 30.4769 24.3817 30.4769H2.03197C1.4931 30.4769 0.976304 30.2629 0.595268 29.8818C0.214232 29.5008 0.000168414 28.984 0.000168414 28.4451V12.1907C-0.00609962 11.7037 0.162778 11.2307 0.476041 10.8577C0.789303 10.4848 1.2261 10.2368 1.70688 10.1589ZM4.06377 26.4133H22.3499V10.8701L4.06377 13.9178V26.4133Z" fill="#96DAE3"/>
<path d="M62.9855 30.4769H32.5085C31.9697 30.4769 31.4529 30.2629 31.0718 29.8818C30.6908 29.5008 30.4767 28.984 30.4767 28.4451V7.11123C30.4705 6.62423 30.6393 6.15118 30.9526 5.77825C31.2659 5.40531 31.7027 5.15732 32.1834 5.07943L62.6604 -6.48499e-05H62.9855C63.4698 -0.000102997 63.9381 0.172829 64.3062 0.487566C64.5292 0.678324 64.7082 0.915133 64.831 1.1817C64.9538 1.44826 65.0173 1.73826 65.0173 2.03173V28.4451C65.0173 28.984 64.8032 29.5008 64.4222 29.8818C64.0412 30.2629 63.5244 30.4769 62.9855 30.4769ZM60.9537 4.42926L34.5403 8.83826V26.4133H60.9537V4.42926Z" fill="#96DAE3"/>
</svg>
